<svg xmlns="http://www.w3.org/2000/svg" viewBox="0 0 32 32"><path d="M16 5h-2V4a1 1 0 0 0-1-1H8a1 1 0 0 0-1 1v1H5a3 3 0 0 0-3 3v18a3 3 0 0 0 3 3h11a3 3 0 0 0 3-3V8a3 3 0 0 0-3-3zM9 5h3v2H9zm8 21a1 1 0 0 1-1 1H5a1 1 0 0 1-1-1V8a1 1 0 0 1 1-1h2v1a1 1 0 0 0 1 1h5a1 1 0 0 0 1-1V7h2a1 1 0 0 1 1 1zm12-15h-2.5V9a1 1 0 0 0-1-1h-3a1 1 0 0 0-1 1v2H21a1 1 0 0 0 0 2v12a1 1 0 0 0 .17.55l2 3a1 1 0 0 0 1.66 0l2-3A1 1 0 0 0 27 25V13h1v7a1 1 0 0 0 2 0v-8a1 1 0 0 0-1-1zm-5.5-1h1v1h-1zM25 24.7l-1 1.5-1-1.5V13h2zM15 13a1 1 0 0 1-1 1H7a1 1 0 0 1 0-2h7a1 1 0 0 1 1 1zm-3 3a1 1 0 0 1-1 1H7a1 1 0 0 1 0-2h4a1 1 0 0 1 1 1z" data-name="medical report"/></svg>