<svg xmlns="http://www.w3.org/2000/svg" width="128" height="128"><rect x="24.196" y="27.35" width="79.602" height="55.772" rx="3.434" ry="3.434" fill="#c5dcf7"/><path d="M100.364 27.35H27.63a3.434 3.434 0 0 0-3.43 3.433v40.6h79.6v-40.6a3.433 3.433 0 0 0-3.436-3.433z" fill="#e9f1f8"/><circle cx="63.997" cy="58.595" r="6.765" fill="#ffd92d"/><path d="M52.652 49a1.75 1.75 0 0 1-1.237-2.987 17.794 17.794 0 0 1 25.164 0 1.75 1.75 0 0 1-2.474 2.475 14.3 14.3 0 0 0-20.215 0 1.745 1.745 0 0 1-1.238.512z" fill="#ff9001"/><path d="M46.164 42.512a1.751 1.751 0 0 1-1.238-2.988 26.973 26.973 0 0 1 38.142 0A1.75 1.75 0 0 1 80.593 42 23.472 23.472 0 0 0 47.4 42a1.743 1.743 0 0 1-1.236.512z" fill="#fd4b4a"/><path fill="#224071" d="M74.039 93.06H53.955l2.379-9.938H71.66l2.379 9.938z"/><path fill="#455e9f" d="M80.664 100.65H47.33l2-7.59h29.334l2 7.59z"/><g fill="#001c5b"><path d="M69.612 62.762a1.751 1.751 0 0 0 2.279-.964 8.527 8.527 0 1 0-4.691 4.687 1.75 1.75 0 0 0-1.316-3.243 5.014 5.014 0 1 1 2.76-2.76 1.751 1.751 0 0 0 .968 2.28zM76.582 48.487a1.749 1.749 0 0 0 0-2.475 17.794 17.794 0 0 0-25.164 0 1.75 1.75 0 1 0 2.475 2.474 14.295 14.295 0 0 1 20.214 0 1.751 1.751 0 0 0 2.475.001z"/><path d="M83.071 42a1.751 1.751 0 0 0 0-2.475 26.973 26.973 0 0 0-38.142 0A1.75 1.75 0 1 0 47.4 42a23.472 23.472 0 0 1 33.2 0 1.749 1.749 0 0 0 2.471 0zM44.375 29.1H45.5a1.75 1.75 0 0 0 0-3.5h-1.125a1.75 1.75 0 0 0 0 3.5z"/><path d="M100.367 25.6H51.655a1.75 1.75 0 0 0 0 3.5h48.712a1.686 1.686 0 0 1 1.684 1.683v48.905a1.687 1.687 0 0 1-1.684 1.684H83.75a1.75 1.75 0 0 0 0 3.5h16.617a5.19 5.19 0 0 0 5.184-5.184v-48.9a5.189 5.189 0 0 0-5.184-5.188zM77.25 81.372a1.75 1.75 0 0 0 0 3.5h.917a1.75 1.75 0 0 0 0-3.5z"/><path d="M80.359 92.614a1.75 1.75 0 0 0-1.692-1.3h-3.245l-2.056-8.6s-.008-.007-.009-.012a1.747 1.747 0 0 0-1.694-1.33h-44.03a1.687 1.687 0 0 1-1.684-1.684v-6.554h70.3a1.75 1.75 0 0 0 0-3.5h-70.3V30.783a1.686 1.686 0 0 1 1.684-1.683H38.5a1.75 1.75 0 0 0 0-3.5H27.633a5.189 5.189 0 0 0-5.184 5.183v48.905a5.19 5.19 0 0 0 5.184 5.184h42.65l1.54 6.438H56.177l.5-2.076a1.75 1.75 0 0 0-3.4-.815l-.691 2.891h-3.253a1.75 1.75 0 0 0-1.692 1.3l-2 7.591a1.749 1.749 0 0 0 1.692 2.2h33.334a1.749 1.749 0 0 0 1.692-2.2zM49.6 98.9l1.078-4.09h26.64L78.4 98.9z"/></g></svg>