<svg version="1.1" id="Icon_Set" xmlns="http://www.w3.org/2000/svg" x="0" y="0" viewBox="0 0 512 512" style="enable-background:new 0 0 512 512" xml:space="preserve"><style>.st3{fill:#4c4372}.st7{fill:#7babf1}</style><circle cx="256" cy="256" r="207" style="fill:#f0c48a"/><path class="st3" d="M256.006 139.817a5.863 5.863 0 0 1-5.863-5.863l.006-91.836a5.862 5.862 0 0 1 5.863-5.862 5.862 5.862 0 0 1 5.862 5.863l-.005 91.836a5.863 5.863 0 0 1-5.863 5.862zM181.087 139.813a5.863 5.863 0 0 1-5.863-5.863l.005-91.836a5.862 5.862 0 1 1 11.725.001l-.005 91.836a5.861 5.861 0 0 1-5.862 5.862zM330.926 139.821a5.862 5.862 0 0 1-5.863-5.863l.005-91.836a5.862 5.862 0 0 1 5.863-5.862 5.862 5.862 0 0 1 5.863 5.863l-.005 91.836a5.864 5.864 0 0 1-5.863 5.862zM255.988 475.745a5.863 5.863 0 0 1-5.863-5.863l.005-91.836a5.862 5.862 0 0 1 5.863-5.862h.001a5.862 5.862 0 0 1 5.862 5.863l-.006 91.836a5.863 5.863 0 0 1-5.862 5.862zM181.069 475.741a5.863 5.863 0 0 1-5.863-5.863l.005-91.837a5.862 5.862 0 1 1 11.725.001l-.005 91.837a5.863 5.863 0 0 1-5.862 5.862zM330.906 475.749a5.862 5.862 0 0 1-5.863-5.863l.006-91.837a5.862 5.862 0 0 1 5.863-5.862 5.862 5.862 0 0 1 5.863 5.863l-.006 91.837a5.862 5.862 0 0 1-5.863 5.862zM469.882 261.875l-91.837-.005a5.862 5.862 0 0 1 0-11.725l91.837.005a5.862 5.862 0 1 1 0 11.725zM469.885 186.956l-91.836-.005a5.863 5.863 0 0 1 0-11.725l91.836.005a5.863 5.863 0 0 1 0 11.725zM469.878 336.794l-91.836-.005a5.862 5.862 0 1 1 0-11.725l91.836.005a5.863 5.863 0 0 1 0 11.725zM133.954 261.856l-91.837-.006a5.862 5.862 0 1 1 .001-11.725h.001l91.836.006a5.862 5.862 0 1 1-.001 11.725zM133.958 186.937l-91.837-.005a5.862 5.862 0 1 1 .001-11.725l91.837.005a5.862 5.862 0 1 1-.001 11.725zM133.95 336.775l-91.837-.005a5.862 5.862 0 0 1 0-11.725l91.837.005a5.862 5.862 0 0 1 0 11.725z"/><circle class="st7" cx="255.987" cy="486.799" r="19.334"/><circle class="st7" cx="181.068" cy="486.795" r="19.334"/><circle class="st7" cx="330.906" cy="486.804" r="19.334"/><path class="st3" d="M255.988 511.996h-.002c-13.893-.001-25.196-11.305-25.195-25.198 0-6.73 2.621-13.057 7.381-17.816 4.759-4.758 11.086-7.379 17.816-7.379h.001c13.894.001 25.196 11.305 25.196 25.198-.002 13.893-11.305 25.195-25.197 25.195zm0-38.668a13.387 13.387 0 0 0-9.526 3.945 13.38 13.38 0 0 0-3.946 9.525c0 7.429 6.042 13.473 13.471 13.473 7.428 0 13.471-6.043 13.472-13.471 0-7.428-6.043-13.472-13.471-13.472zm19.334 13.473h.01-.01zM181.068 511.992h-.002c-13.893-.001-25.196-11.305-25.195-25.198.001-13.893 11.305-25.195 25.198-25.195 13.894.002 25.196 11.305 25.196 25.198 0 6.73-2.622 13.057-7.381 17.816-4.76 4.758-11.087 7.379-17.816 7.379zm0-38.669c-7.428 0-13.471 6.043-13.472 13.471-.001 7.428 6.042 13.472 13.471 13.472h.001c3.598 0 6.98-1.401 9.525-3.945a13.383 13.383 0 0 0 3.946-9.525h5.863-5.863c.001-7.428-6.043-13.472-13.471-13.473zM330.906 512c-6.732 0-13.058-2.622-17.817-7.381s-7.38-11.087-7.379-17.817c0-6.73 2.621-13.057 7.381-17.816 4.759-4.759 11.086-7.379 17.816-7.379h.001c6.731 0 13.057 2.622 17.816 7.381 4.759 4.759 7.38 11.087 7.379 17.818v-.001.001c0 6.73-2.621 13.057-7.381 17.816-4.759 4.757-11.087 7.378-17.816 7.378zm0-38.668a13.387 13.387 0 0 0-9.526 3.945 13.383 13.383 0 0 0-3.946 9.525c0 3.599 1.401 6.982 3.945 9.526a13.383 13.383 0 0 0 9.525 3.946h.001c3.599 0 6.981-1.401 9.526-3.945a13.383 13.383 0 0 0 3.946-9.525c0-3.599-1.401-6.982-3.945-9.526a13.384 13.384 0 0 0-9.526-3.946z"/><circle class="st7" cx="256.013" cy="25.201" r="19.334"/><circle class="st7" cx="181.093" cy="25.197" r="19.334"/><circle class="st7" cx="330.932" cy="25.205" r="19.334"/><path class="st3" d="M256.012 50.397h-.001c-13.893-.001-25.195-11.305-25.195-25.198 0-6.73 2.621-13.058 7.38-17.817 4.759-4.758 11.086-7.379 17.816-7.379h.001c6.73.001 13.057 2.622 17.816 7.381 4.759 4.76 7.38 11.087 7.379 17.817 0 6.73-2.621 13.058-7.381 17.816-4.758 4.76-11.085 7.38-17.815 7.38zm.001-38.668c-3.598 0-6.981 1.401-9.526 3.945s-3.946 5.927-3.946 9.525c-.001 7.428 6.042 13.472 13.47 13.472 3.598 0 6.981-1.401 9.526-3.945a13.383 13.383 0 0 0 3.946-9.525c0-3.598-1.401-6.981-3.945-9.526a13.386 13.386 0 0 0-9.525-3.946zM181.094 50.393h-.001c-6.73 0-13.058-2.621-17.816-7.38s-7.379-11.087-7.379-17.817c.001-6.73 2.622-13.057 7.381-17.816C168.037 2.621 174.364 0 181.093 0h.002c13.893.001 25.196 11.305 25.195 25.198-.001 13.893-11.305 25.195-25.196 25.195zm-.001-38.668c-3.598 0-6.98 1.401-9.525 3.945a13.383 13.383 0 0 0-3.946 9.525c0 3.599 1.401 6.982 3.945 9.526a13.38 13.38 0 0 0 9.525 3.946c7.428 0 13.472-6.042 13.472-13.47 0-7.428-6.043-13.472-13.471-13.472zm19.335 13.473h.009-.009zM330.931 50.402h-.001c-13.893-.001-25.196-11.304-25.196-25.198.001-13.893 11.305-25.196 25.198-25.196 6.731.001 13.057 2.622 17.816 7.381 4.759 4.759 7.38 11.087 7.379 17.817 0 6.73-2.621 13.057-7.381 17.816-4.758 4.759-11.085 7.38-17.815 7.38zm.002-38.669c-7.428 0-13.472 6.043-13.473 13.471 0 7.428 6.043 13.472 13.47 13.472h.001c3.598 0 6.981-1.401 9.526-3.945a13.383 13.383 0 0 0 3.946-9.525c0-3.598-1.401-6.981-3.945-9.526a13.38 13.38 0 0 0-9.525-3.947z"/><circle class="st7" cx="486.799" cy="256.013" r="19.334"/><circle class="st7" cx="486.803" cy="181.094" r="19.334"/><circle class="st7" cx="486.795" cy="330.932" r="19.334"/><path class="st3" d="M486.799 281.209h-.001c-6.73 0-13.057-2.621-17.816-7.38s-7.38-11.087-7.379-17.817c0-6.73 2.621-13.057 7.38-17.816 4.759-4.759 11.086-7.379 17.816-7.379h.001c6.731.001 13.058 2.622 17.817 7.381s7.38 11.087 7.379 17.818c0 6.73-2.621 13.057-7.381 17.816-4.759 4.757-11.086 7.377-17.816 7.377zm0-38.667c-3.598 0-6.98 1.401-9.525 3.945a13.383 13.383 0 0 0-3.946 9.525c0 3.599 1.401 6.982 3.945 9.526a13.383 13.383 0 0 0 9.525 3.946h.001c3.599 0 6.981-1.401 9.526-3.945a13.383 13.383 0 0 0 3.946-9.525c0-3.599-1.401-6.982-3.945-9.527a13.389 13.389 0 0 0-9.527-3.945zM486.801 206.291c-6.731-.001-13.057-2.622-17.816-7.381-4.759-4.759-7.38-11.087-7.379-17.817 0-6.73 2.621-13.057 7.381-17.816 4.759-4.758 11.086-7.379 17.816-7.379h.001c13.893 0 25.196 11.304 25.196 25.197-.001 13.893-11.305 25.196-25.199 25.196zm.003-38.668a13.387 13.387 0 0 0-9.527 3.945 13.383 13.383 0 0 0-3.946 9.525c0 3.599 1.401 6.982 3.945 9.526a13.38 13.38 0 0 0 9.525 3.946c7.429 0 13.472-6.043 13.473-13.471.001-7.428-6.042-13.471-13.47-13.471zM486.795 356.129c-6.732 0-13.058-2.622-17.818-7.381-4.759-4.759-7.38-11.087-7.379-17.817.001-13.893 11.304-25.195 25.198-25.195h.001c13.892.001 25.195 11.304 25.195 25.198 0 6.73-2.621 13.058-7.381 17.817-4.759 4.757-11.086 7.378-17.816 7.378zm-.001-11.725c3.599 0 6.982-1.401 9.527-3.945a13.383 13.383 0 0 0 3.946-9.525c0-7.428-6.043-13.472-13.469-13.472-7.428-.001-13.472 6.042-13.473 13.471 0 3.598 1.401 6.981 3.946 9.526a13.383 13.383 0 0 0 9.523 3.945z"/><circle class="st7" cx="25.201" cy="255.987" r="19.334"/><circle class="st7" cx="25.205" cy="181.068" r="19.334"/><circle class="st7" cx="25.196" cy="330.907" r="19.334"/><path class="st3" d="M25.201 281.184h-.002c-6.729 0-13.057-2.621-17.816-7.38-4.759-4.759-7.38-11.087-7.379-17.817.001-6.73 2.622-13.057 7.381-17.816 4.759-4.758 11.086-7.379 17.815-7.379h.002c13.893.001 25.196 11.305 25.195 25.198-.001 13.892-11.305 25.194-25.196 25.194zm-.001-38.668c-3.598 0-6.98 1.401-9.525 3.945a13.383 13.383 0 0 0-3.946 9.525c0 3.598 1.401 6.982 3.945 9.526a13.38 13.38 0 0 0 9.525 3.946c7.427 0 13.471-6.042 13.472-13.47.002-7.428-6.041-13.472-13.471-13.472.001 0 .001 0 0 0zM25.205 206.265h-.002C11.31 206.264.008 194.96.008 181.067c.001-6.73 2.622-13.058 7.381-17.817 4.759-4.758 11.086-7.379 17.815-7.379h.002c13.893.001 25.196 11.305 25.195 25.198 0 13.893-11.304 25.196-25.196 25.196zm-.001-11.725c7.428 0 13.471-6.043 13.472-13.471 0-7.428-6.042-13.472-13.471-13.472h-.001c-3.598 0-6.98 1.401-9.525 3.945a13.383 13.383 0 0 0-3.946 9.525c0 7.429 6.043 13.472 13.471 13.473zM25.197 356.103h-.002c-6.73 0-13.057-2.621-17.816-7.381C2.62 343.963 0 337.635 0 330.905s2.621-13.058 7.38-17.816c4.759-4.758 11.086-7.379 17.816-7.379h.002c6.73 0 13.057 2.621 17.816 7.381 4.759 4.759 7.38 11.087 7.379 17.817-.001 13.893-11.304 25.195-25.196 25.195zm-.001-38.668a13.382 13.382 0 0 0-9.525 3.945 13.384 13.384 0 0 0-3.946 9.526c0 7.428 6.043 13.472 13.47 13.472 7.428 0 13.472-6.043 13.472-13.471 0-3.598-1.401-6.981-3.945-9.526a13.388 13.388 0 0 0-9.526-3.946c.001 0 .001 0 0 0z"/><path d="M352.926 397.679H160.051c-24.614 0-44.754-20.139-44.754-44.754V160.051c0-24.614 20.139-44.753 44.754-44.753h192.875c24.614 0 44.754 20.139 44.754 44.753v192.875c-.001 24.614-20.14 44.753-44.754 44.753z" style="fill:#d3e6f8"/><path class="st7" d="M369.344 393.846c11.858-4.88 24.091-17.926 28.336-34.447l-.81-207.759c-4.283-15.907-15.668-28.607-27.527-33.486v275.692z"/><path class="st3" d="M352.926 403.542H160.051c-27.91 0-50.616-22.706-50.616-50.616V160.051c0-27.91 22.706-50.616 50.616-50.616h192.875c27.91 0 50.616 22.706 50.616 50.616v192.875c0 27.91-22.706 50.616-50.616 50.616zM160.051 121.16c-21.445 0-38.891 17.446-38.891 38.891v192.875c0 21.445 17.446 38.891 38.891 38.891h192.875c21.445 0 38.891-17.446 38.891-38.891V160.051c0-21.445-17.447-38.891-38.891-38.891H160.051z"/><path d="M309.725 334.656h-107.45c-13.713 0-24.932-11.219-24.932-24.932V202.275c0-13.713 11.219-24.932 24.932-24.932h107.449c13.712 0 24.932 11.219 24.932 24.932v107.449c0 13.713-11.219 24.932-24.931 24.932z" style="fill:#fd919e"/><path class="st3" d="M309.724 340.519H202.275c-16.98 0-30.794-13.814-30.794-30.794v-107.45c0-16.98 13.814-30.794 30.794-30.794h107.449c16.98 0 30.795 13.814 30.795 30.794v107.449c0 16.981-13.815 30.795-30.795 30.795zM202.275 183.206c-10.515 0-19.069 8.554-19.069 19.069v107.449c0 10.515 8.554 19.069 19.069 19.069h107.449c10.515 0 19.07-8.554 19.07-19.069V202.275c0-10.515-8.554-19.069-19.07-19.069H202.275z"/></svg>