<svg xmlns="http://www.w3.org/2000/svg" viewBox="0 0 120 120" xml:space="preserve"><path fill="#FBCF26" d="M37.774 75.117h-3.64v3.006h3.64v-3.006zm13.656.001h-3.828v3.006h3.828v-3.006zm13.655 0h-3.828v3.005h3.828v-3.005zm13.655.001h-3.828v3.005h3.828v-3.005zm-37.364 6.005h-2.852v2.927h2.852v-2.927zm13.656 0h-3.828v2.927h3.828v-2.927zm9.827 2.927h3.827v-2.927h-3.827v2.927zm13.656-2.927v2.927h2.176v-2.927h-2.176zm-3.603 8.629h3.828v-2.701h-3.828v2.701zm-20.482 0h10.655v-2.701H54.43v2.701zm-13.655 0h3.826v-2.701h-3.826v2.701z"/><path fill="#1A2559" d="M85.218 72.118h-51.31a2.774 2.774 0 0 0-2.775 2.775v15.086a2.773 2.773 0 0 0 2.775 2.773l51.31.002a2.776 2.776 0 0 0 2.775-2.775V74.893a2.774 2.774 0 0 0-2.775-2.775zm-10.306 3.001h3.828v3.004h-3.828v-3.004zm.603 6.005v2.927h-3.828v-2.927h3.828zm-7.43-6.005h3.828v3.005h-3.828v-3.005zm.601 6.005v2.927h-3.827v-2.927h3.827zm-7.429-6.006h3.828v3.005h-3.828v-3.005zm.601 6.006v2.927h-3.826v-2.927h3.826zm-7.428-6.006h3.827v3.005H54.43v-3.005zm.602 6.006v2.927h-3.828v-2.927h3.828zm-7.43-6.006h3.828v3.006h-3.828v-3.006zm.602 6.006v2.927h-3.827v-2.927h3.827zm-7.429-6.007h3.826v3.006h-3.826v-3.006zm-6.642 6.007h1.391v2.927h-1.391v-2.927zm3.641 8.629h-3.642v-2.701h3.642v2.701zm0-11.629h-3.64v-3.006h3.64v3.006zm.75 3h2.852v2.927h-2.852v-2.927zm6.077 8.629h-3.826v-2.701h3.826v2.701zm6.829 0h-3.828v-2.701h3.828v2.701zm13.655 0H54.43v-2.701h10.655v2.701zm6.828 0h-3.828v-2.701h3.828v2.701zm6.827 0h-3.828v-2.701h3.828v2.701zm1.951-5.702h-2.176v-2.927h2.176v2.927zm4.302 5.702h-3.252v-2.701h3.252v2.701zm.001-5.702h-1.302v-2.927h1.302v2.927zm.001-5.927h-3.254V75.12h3.254v3.004zm-6.082-51.797H37.737v42.916h41.177V26.327zm-3 39.916H40.737V29.327h35.177v36.916z"/><path fill="#FBCF26" d="m56.131 51.749-6.662-2.764v-1.739l6.662-2.768v2.081l-4.049 1.561 4.049 1.561v2.068zM58.915 43.674h1.218l-2.157 8.883H56.77l2.145-8.883zM60.731 49.68l4.049-1.561-4.049-1.561v-2.081l6.662 2.768v1.739l-6.662 2.764V49.68z"/></svg>