<svg xmlns="http://www.w3.org/2000/svg" viewBox="0 0 400 400" xml:space="preserve"><path fill="#FFDA88" d="M246.955 144.208v28.371l-15.093 10.933-15.093-10.933v-28.371c-10.062 5.673-17.454 16.236-17.454 28.371 0 14.274 7.392 26.389 20.808 30.89l-.852 93.095c6.708-1.746 20.975-4.553 24.329-7.972v-85.123c13.416-4.5 22.483-16.616 22.483-30.89.002-12.135-6.551-24.565-19.128-28.371zM149.691 158.076v19.97l6.708 14.29v95.614c7.546 3.445 10.062 4.039 13.416 5.365V192.336l6.708-14.29v-19.97h-26.832z"/><path fill="#FFE2A9" d="M163.107 290.822V158.076h-13.416v19.97l6.708 14.29v95.614c2.882 1.437 6.708 2.872 6.708 2.872zM230.185 293.832v-110.32l-13.416-10.933v-28.371c-10.062 5.673-17.454 16.236-17.454 28.371 0 14.274 7.392 26.389 20.808 30.89l-.852 93.095c3.355-.856 5.884-.787 10.914-2.732z"/><path fill="#8EC0D6" d="M314.291 188.261c-2.788-20.124-10.463-39.605-21.685-54.587l12.556-13.74-23.198-23.792-12.766 12.253c-14.989-11.212-35.66-19.184-52.43-21.971V67.519H183.23v18.905c-16.77 2.787-36.635 10.462-51.626 21.683L119.338 95.55 96.3 118.745l12.626 14.929c-11.218 14.988-18.82 34.463-21.604 54.587H69.196v30.186h18.126c2.784 20.124 10.46 36.153 21.68 51.141l-12.555 12.024 23.186 22.924 11.971-12.686c14.991 11.218 34.856 18.751 51.626 21.542v15.735h33.539v-15.735c16.77-2.79 37.44-10.458 52.433-21.679l12.658 12.554 23.249-23.196-12.528-11.483c11.221-14.988 18.923-31.017 21.711-51.141h19.866v-30.186h-19.867zM200.804 298.299c-54.337 0-98.387-44.053-98.387-98.391 0-54.335 44.05-98.388 98.387-98.388 54.338 0 98.393 44.053 98.393 98.388 0 54.338-44.055 98.391-98.393 98.391z"/><path fill="#A9D2E0" d="M200 329.127V298.3c-50.309 0-98.389-44.053-98.389-98.391 0-54.335 48.08-98.388 98.389-98.388V67.519h-16.77v18.905c-16.77 2.787-36.635 10.462-51.626 21.683L119.338 95.55 96.3 118.745l12.626 14.929c-11.218 14.988-18.82 34.463-21.604 54.587H69.196v30.186h18.126c2.784 20.124 10.46 36.153 21.68 51.141l-12.555 12.024 23.186 22.924 11.971-12.686c14.991 11.218 34.856 18.751 51.626 21.542v15.735H200z"/><g><path fill="#161616" d="M156.399 287.949c6.708 1.755 10.062 3.305 13.416 4.631V191.615h-13.416v96.334z"/><path fill="#161616" d="M169.815 198.323h-13.416a5.028 5.028 0 0 1-4.777-3.455l-5.031-15.247a4.98 4.98 0 0 1-.254-1.575v-18.293a5.032 5.032 0 0 1 5.031-5.031h23.478a5.031 5.031 0 0 1 5.031 5.031v18.027c0 .527-.083 1.051-.246 1.553l-5.031 15.512a5.033 5.033 0 0 1-4.785 3.478zm-9.779-10.062h6.122l3.657-11.277v-12.201h-13.416v12.453l3.637 11.025zM218.447 300.808a5.03 5.03 0 0 1-5.031-5.03v-50.499a5.032 5.032 0 0 1 10.062 0v44.083c4.145-1.015 10.396-2.633 13.416-4.058V203.47a5.03 5.03 0 0 1 3.431-4.769c12.206-4.094 20.73-14.837 20.73-26.121 0-6.213-3.406-12.924-7.391-17.736v17.736a5.031 5.031 0 0 1-2.08 4.074l-15.093 10.933a5.025 5.025 0 0 1-5.516.252l-18.447-10.933a5.025 5.025 0 0 1-2.466-4.327v-18.093c-4.685 5.047-7.392 11.47-7.392 18.093 0 12.705 6.497 22.469 17.377 26.121a5.03 5.03 0 0 1 3.431 4.769v21.686a5.032 5.032 0 0 1-10.062 0v-18.263c-12.928-5.846-20.808-18.673-20.808-34.312 0-13.242 7.669-25.793 20.014-32.753a5.03 5.03 0 0 1 7.503 4.382v25.505l13.139 7.785 10.339-7.487v-25.803a5.031 5.031 0 0 1 7.139-4.569c8.509 3.927 20.376 18.358 20.376 32.94 0 14.428-9.77 28.092-24.16 34.342v81.028a5.045 5.045 0 0 1-1.439 3.524c-3.488 3.554-11.193 5.624-21.697 8.159-1.518.367-2.918.704-4.104 1.012a4.997 4.997 0 0 1-1.271.163z"/><path fill="#161616" d="M215.093 335.835h-33.539a5.032 5.032 0 0 1-5.031-5.031v-13.229c-15.915-3.262-31.887-9.967-44.96-18.872l-8.134 9.345a5.026 5.026 0 0 1-3.595 1.726c-1.431.066-2.733-.465-3.721-1.435l-23.186-22.714a5.028 5.028 0 0 1 .106-7.287l9.269-8.568c-10.381-14.706-16.459-28.767-19.277-44.613H67.519a5.032 5.032 0 0 1-5.031-5.031V189.94a5.031 5.031 0 0 1 5.031-5.031H82.88c1.151-8.221 2.892-15.519 5.291-22.197.94-2.617 3.821-3.96 6.434-3.036a5.032 5.032 0 0 1 3.035 6.436c-2.555 7.114-4.294 15.089-5.317 24.378a5.033 5.033 0 0 1-5.001 4.481H72.55v20.124h14.772a5.03 5.03 0 0 1 4.983 4.343c2.414 17.448 8.612 31.797 20.723 47.977a5.029 5.029 0 0 1-.613 6.708l-8.671 8.015 15.597 15.283 7.63-8.765a5.03 5.03 0 0 1 6.809-.727c13.358 9.996 31.527 17.661 48.598 20.504a5.03 5.03 0 0 1 4.206 4.962v12.381h23.477v-12.381a5.03 5.03 0 0 1 4.206-4.962c13.86-2.306 35.555-9.125 51.082-20.746a5.03 5.03 0 0 1 6.5.4l9.539 9.158 16.085-15.905-8.272-7.091a5.03 5.03 0 0 1-.753-6.836c12.225-16.327 18.463-30.677 20.856-47.974a5.031 5.031 0 0 1 4.983-4.343h13.162v-20.124h-13.162a5.031 5.031 0 0 1-4.983-4.343c-2.743-19.822-10.296-39.173-20.725-53.096a5.033 5.033 0 0 1 .262-6.354l9.462-10.674-16.596-17.176-9.996 8.929a5.028 5.028 0 0 1-6.364.275c-13.211-9.882-33.261-18.181-51.08-21.142a5.03 5.03 0 0 1-4.206-4.962V74.227h-23.477v12.197a5.03 5.03 0 0 1-4.206 4.962c-16.806 2.794-34.974 10.55-48.598 20.749a5.043 5.043 0 0 1-6.675-.576l-8.264-8.758-15.64 15.892 9.151 9.02a5.03 5.03 0 0 1 .498 6.593c-1.251 1.677-2.54 4.169-3.785 6.577-.86 1.664-1.7 3.282-2.529 4.671a5.04 5.04 0 0 1-6.896 1.749 5.032 5.032 0 0 1-1.747-6.898c.734-1.232 1.472-2.669 2.234-4.14.732-1.418 1.477-2.859 2.263-4.242l-9.834-9.695a5.03 5.03 0 0 1-.052-7.111l22.829-23.196c.956-.976 2.363-1.448 3.637-1.503a5.023 5.023 0 0 1 3.608 1.579l8.834 9.364c13.167-9.007 29.491-15.961 45.109-19.213V69.196a5.032 5.032 0 0 1 5.031-5.031h33.539a5.031 5.031 0 0 1 5.031 5.031v13.049c16.707 3.429 34.704 10.884 47.882 19.829l10.609-9.476a5.025 5.025 0 0 1 6.968.259l23.193 24.002a5.03 5.03 0 0 1 .147 6.832l-9.891 11.159c9.431 13.815 16.404 31.649 19.567 50.057h13.882a5.031 5.031 0 0 1 5.031 5.031v30.186a5.032 5.032 0 0 1-5.031 5.031h-13.897c-2.805 15.689-8.894 29.71-19.308 44.472l8.894 7.625a5.028 5.028 0 0 1 .264 7.396l-23.455 23.196a5.03 5.03 0 0 1-7.022.052l-10.072-9.669c-14.973 10.134-33.516 16.445-47.761 19.347v13.229a5.029 5.029 0 0 1-5.029 5.032zm-14.289-32.505c-57.025 0-103.419-46.395-103.419-103.422S143.779 96.49 200.804 96.49c57.029 0 103.423 46.392 103.423 103.419S257.833 303.33 200.804 303.33zm0-196.779c-51.477 0-93.357 41.878-93.357 93.357s41.88 93.36 93.357 93.36c51.48 0 93.362-41.882 93.362-93.36s-41.882-93.357-93.362-93.357z"/></g></svg>