<svg xmlns="http://www.w3.org/2000/svg" xml:space="preserve" width="655.359" height="655.359" style="shape-rendering:geometricPrecision;text-rendering:geometricPrecision;image-rendering:optimizeQuality;fill-rule:evenodd;clip-rule:evenodd" viewBox="0 0 6.827 6.827"><defs><style>.fil0{fill:#212121;fill-rule:nonzero}</style></defs><g id="Layer_x0020_1"><path class="fil0" d="M4.064 1.653c.04 0 .076-.007.108-.02a.296.296 0 0 0 .094-.066.29.29 0 0 0 .065-.094.293.293 0 0 0 .021-.113.293.293 0 0 0-.021-.113.29.29 0 0 0-.064-.095.278.278 0 0 0-.203-.085.278.278 0 0 0-.203.085.29.29 0 0 0-.065.095.294.294 0 0 0-.02.113c0 .042.006.08.02.113a.29.29 0 0 0 .065.094c.03.03.061.052.094.066.033.014.07.02.109.02zm.19.175a.487.487 0 0 1-.545-.11h.001a.503.503 0 0 1 0-.716.488.488 0 0 1 .544-.11.503.503 0 0 1 .162.827h.001a.506.506 0 0 1-.162.11zM5.68 5.471l-.644-.76-.024-.05-.059-.342a22.305 22.305 0 0 0-.32-1.622l-.06-.243.217.126c.283.163.358.33.466.57.033.073.069.152.111.233v.002a.088.088 0 0 0 .09.05.124.124 0 0 0 .044-.013.108.108 0 0 0 .033-.025c.02-.022.026-.057.006-.1l-.068-.132c-.108-.21-.299-.584-.348-.655l-.606-.303a.636.636 0 0 0-.406-.033c-.115.03-.213.092-.256.183a.24.24 0 0 0-.006.013l-.006.013-.393.695-.022.038-.043.012-.56.153-.018.004c-.045.004-.069.027-.077.055a.132.132 0 0 0 .019.106.07.07 0 0 0 .078.03l.726-.2.235-.369.193.035a47.991 47.991 0 0 0 .136.612l.014.057-.04.042-.596.614-.005.005a.227.227 0 0 0-.05.061.097.097 0 0 0-.012.046v1.248c0 .064.035.104.08.122.018.007.04.011.062.011a.174.174 0 0 0 .063-.011.123.123 0 0 0 .08-.122v-1.09l.034-.032c.135-.124.27-.272.388-.403.078-.086.15-.164.203-.218l.122-.122.054.163a.716.716 0 0 1 .019.08l.025.142a24.078 24.078 0 0 0 .087.493.17.17 0 0 0 .049.092l.031.032v.044c0 .022.056.031.167.163l.578.675c.045.05.097.06.14.046a.158.158 0 0 0 .089-.078.125.125 0 0 0-.02-.142zm-.463-.876.625.739a.33.33 0 0 1 .049.377.374.374 0 0 1-.213.183.333.333 0 0 1-.368-.11l-.58-.676a3.058 3.058 0 0 1-.181-.23l-.005.005a.383.383 0 0 1-.106-.199l-.001-.004a201.502 201.502 0 0 1-.088-.496l-.055.06a6.835 6.835 0 0 1-.368.385v.998a.328.328 0 0 1-.214.32.388.388 0 0 1-.281 0 .328.328 0 0 1-.215-.32V4.379c0-.05.012-.098.037-.145a.434.434 0 0 1 .094-.119l.55-.568a10.6 10.6 0 0 1-.068-.307l-.118.184-.061.045-.767.212-.003.001a.274.274 0 0 1-.306-.116.347.347 0 0 1-.048-.283.28.28 0 0 1 .252-.209l.51-.14.368-.651a.579.579 0 0 1 .405-.315.855.855 0 0 1 .547.046l.003.002.628.314.028.02c.054.055.274.484.394.718l.067.13V3.2c.068.134.04.254-.034.337a.338.338 0 0 1-.22.11.293.293 0 0 1-.295-.165c-.05-.095-.085-.173-.117-.244a1.427 1.427 0 0 0-.148-.276c.098.44.173.88.249 1.321l.054.312zM1.066 1.5c.2-.195.508-.185.764-.059a.946.946 0 0 1 .24.17c.072.07.13.15.168.238.092.214.067.461-.17.689-.238.228-.488.243-.7.143a.758.758 0 0 1-.232-.176.937.937 0 0 1-.16-.247c-.116-.257-.113-.563.09-.758zm.67.132c-.182-.09-.394-.104-.523.021-.13.126-.125.336-.043.519.03.069.073.134.124.19a.544.544 0 0 0 .166.126c.135.064.299.052.46-.103.161-.155.18-.316.122-.451a.54.54 0 0 0-.12-.17.733.733 0 0 0-.186-.132z"/><path class="fil0" d="m2.068 2.386.792.802-.152.149-.792-.802zM1.58 3.135a.366.366 0 0 1 .26.627.366.366 0 0 1-.627-.26.366.366 0 0 1 .367-.367zm.109.258a.153.153 0 0 0-.263.11.153.153 0 0 0 .263.108.153.153 0 0 0 0-.218z"/><path style="fill:none" d="M0 0h6.827v6.827H0z"/></g></svg>